<svg xmlns="http://www.w3.org/2000/svg" viewBox="0 0 226 221.02"><defs><style>.cls-1,.cls-2,.cls-3{fill:none;stroke-linecap:round;}.cls-1{stroke:#ececec;stroke-linejoin:round;stroke-width:7px;}.cls-2{stroke:#693;stroke-width:9px;}.cls-2,.cls-3{stroke-miterlimit:10;}.cls-3{stroke:#fcd329;stroke-width:11px;}</style></defs><g id="Слой_2" data-name="Слой 2"><g id="Слой_4" data-name="Слой 4"><path class="cls-1" d="M146.14,5.75A107.75,107.75,0,0,1,220.5,108c0,59-48.53,107.5-107.5,107.5S5.5,167,5.5,108A107.7,107.7,0,0,1,76.15,7"/><path class="cls-2" d="M145.89,5.67A107.74,107.74,0,0,1,220.5,108c0,59-48.53,107.5-107.5,107.5S5.5,167,5.5,108a107.71,107.71,0,0,1,70-100.74"/><path class="cls-3" d="M145.35,5.5A107.75,107.75,0,0,1,220.5,108c0,59-48.53,107.5-107.5,107.5S5.5,167,5.5,108A107.71,107.71,0,0,1,75.33,7.33"/></g></g></svg>